# xmcd
#
# Track frame offsets:
#	150
#	11647
#	24694
#	37554
#	49018
#	61204
#	72707
#	84178
#	99065
#	109093
#	124241
#	133525
#	144252
#	158731
#	168799
#
# Disc length: 2446 seconds
#
# Revision: 1
# Processed by: cddbd v1.5.2PL0 Copyright (c) Steve Scherf et al.
# Submitted via: audiograbber 1.83.01
#
DISCID=b3098c0f
DTITLE=Various Artist - Time Life Presents: The Soul Story Volume 2 Disc 2
DYEAR=2006
DGENRE=Soul
TTITLE0=Wilson Pickett - In The Midnight Hour
TTITLE1=Ray Charles - I've Got A Woman
TTITLE2=Aretha Franklin - I Never Loved A Man (The Way I Love You)
TTITLE3=Otis Redding - These Arms Of Mine
TTITLE4=Barbara Lewis - Hello Stranger
TTITLE5=Solomon Burke - If You Need Me
TTITLE6=Jackie Wilson - Lonely Teardrops
TTITLE7=The Delfonics - La La Means I Love You
TTITLE8=Lou Rawls - Love Is A Hurtin' Thing
TTITLE9=William DeVaughn - Be Thankful For What You Got
TTITLE10=Gladys Knight And The Pips - Every Beat Of My Heart
TTITLE11=The Esquires - Get On Up
TTITLE12=Betty Harris - Cry To Me
TTITLE13=Sam Cooke - I'll Come Running Back To You
TTITLE14=Sam And Dave - When Something Is Wrong With My Baby
EXTD=
EXTT0=
EXTT1=
EXTT2=
EXTT3=
EXTT4=
EXTT5=
EXTT6=
EXTT7=
EXTT8=
EXTT9=
EXTT10=
EXTT11=
EXTT12=
EXTT13=
EXTT14=
PLAYORDER=
